<svg width="920" height="404" viewBox="0 0 920 404" fill="none" xmlns="http://www.w3.org/2000/svg">
<path fill-rule="evenodd" clip-rule="evenodd" d="M745.604 27.602C760.916 8.42149 783.331 -6.06111 808.388 2.53629C816.347 5.26733 824.049 9.67893 830.303 16.7866C836.552 23.8891 840.424 32.6264 842.401 42.5493C846.193 61.5847 843.387 87.0259 835.005 120.441C820.08 179.943 784.974 250.077 764.172 282.32C764.014 282.564 763.852 282.802 763.686 283.036C763.337 283.739 762.939 284.427 762.489 285.096C756.466 294.067 748.36 305.586 738.287 317.767C741.054 323.224 744.264 328.476 747.854 333.318C759.793 349.414 773.609 358.051 786.292 358.577C807.62 359.463 825.698 352.049 841.663 336.009C858.143 319.452 872.63 293.351 884.424 257.006C887.493 247.55 897.646 242.372 907.101 245.441C916.557 248.509 921.735 258.662 918.667 268.118C905.961 307.272 889.198 339.282 867.178 361.405C844.643 384.046 816.971 395.882 784.799 394.546C756.919 393.389 734.235 375.386 718.94 354.764C716.689 351.73 714.548 348.576 712.526 345.325C709.59 348.074 706.557 350.784 703.429 353.433C676.213 376.483 640.343 396.137 597.096 395.056C573.622 394.469 556.154 380.939 543.902 364.318C531.787 347.884 523.349 326.706 517.4 305.821C510.286 280.844 506.197 254.334 504.153 232.751C491.549 239.992 476.004 245.698 458.434 246.161C457.277 246.191 456.144 246.202 455.034 246.192C459.786 262.307 460.529 278.511 459.437 290.721C458.944 308.51 453.913 334.76 439.835 357.619C425.114 381.521 400.174 401.936 361.76 403.649C342.945 404.488 326.585 400.428 313.206 391.727C304.452 386.034 297.544 378.725 292.212 370.5C275.47 379.59 253.086 387.248 231.334 391.107C218.117 393.451 204.349 394.539 191.538 393.398C178.94 392.276 165.689 388.855 155.078 380.752C143.138 371.634 138.284 358.654 136.575 346.469C134.906 334.569 135.952 321.573 137.456 309.633C138.204 303.696 139.122 297.638 140.006 291.803L140.076 291.343C140.994 285.282 141.874 279.444 142.586 273.728C144.031 262.126 144.612 252.235 143.632 244.099C142.229 232.456 138.561 226.206 135.249 222.909C132.038 219.713 127.742 217.863 122.05 217.643C109.755 217.167 92.8707 224.7 80.7597 239.054C69.9265 251.893 59.9566 276.148 51.8671 304.347C43.9959 331.786 38.6401 360.231 35.8027 379.12C34.326 388.951 25.1594 395.723 15.3286 394.246C5.49776 392.77 -1.27457 383.603 0.202161 373.772C3.1981 353.828 8.84232 323.773 17.2628 294.42C25.4649 265.828 37.0784 234.999 53.2452 215.839C70.8052 195.027 97.6608 180.673 123.442 181.67C136.789 182.186 150.116 186.914 160.645 197.394C171.074 207.773 177.266 222.299 179.373 239.793C180.893 252.407 179.848 265.828 178.31 278.179C177.53 284.44 176.578 290.739 175.67 296.734L175.631 296.992C174.724 302.977 173.865 308.649 173.174 314.134C171.741 325.506 171.255 334.542 172.226 341.469C173.158 348.112 175.117 350.758 176.927 352.14C180.066 354.537 185.753 356.741 194.732 357.54C203.5 358.321 213.951 357.628 225.046 355.66C246.098 351.926 266.681 344.127 279.011 336.577C274.641 314.371 276.321 289.948 281.432 268.072C281.578 267.447 281.755 266.838 281.961 266.245C281.997 264.747 282.222 263.23 282.653 261.722C286.264 249.082 294.574 230.795 308.374 215.314C322.378 199.604 343.166 185.667 370.96 185.667C371.856 185.667 372.739 185.674 373.611 185.687C373.892 185.674 374.174 185.667 374.458 185.667C379.834 185.667 384.921 186.053 389.728 186.785C396.103 187.605 401.756 188.851 406.892 190.441C416.617 193.451 423.726 197.472 429.373 200.874C430.261 201.408 431.084 201.908 431.855 202.376L431.876 202.389C436.244 205.04 438.936 206.674 442.301 207.98C445.699 209.299 450.179 210.366 457.487 210.173C480.509 209.567 499.964 193.07 506.338 185.006C512.502 177.207 523.822 175.881 531.621 182.045C536.287 185.732 538.636 191.265 538.451 196.785C538.495 197.374 538.511 197.97 538.498 198.573C538.117 215.5 541.212 258.003 552.023 295.958C557.439 314.971 564.418 331.48 572.879 342.957C581.203 354.248 589.47 358.854 597.996 359.067C629.248 359.849 656.795 345.753 680.163 325.962C685.961 321.052 691.414 315.863 696.508 310.58C695.729 307.91 695.022 305.192 694.381 302.432C693.136 297.378 692.193 292.323 691.578 287.331C688.324 264.573 688.797 239.78 691.068 215.491C694.412 179.748 701.873 143.082 709.002 112.034C717.112 76.7146 729.851 47.3335 745.604 27.602ZM733.921 262.804C733.545 263.385 733.208 263.981 732.907 264.587C732.804 264.732 732.702 264.879 732.602 265.027C730.676 267.896 728.56 270.985 726.26 274.232C724.655 257.607 725.042 238.835 726.912 218.844C730.032 185.491 737.07 150.657 744.089 120.09C751.479 87.9094 762.49 64.1509 773.738 50.0627C785.425 35.4233 793.26 35.4059 796.704 36.5876C800.097 37.752 802.009 39.1282 803.275 40.5667C804.545 42.0103 806.098 44.5776 807.095 49.5834C809.251 60.4056 808.205 79.319 800.087 111.683C786.331 166.524 753.119 233.047 733.921 262.804ZM370.96 221.667C376.296 221.667 380.826 221.957 384.712 222.437C400.836 225.015 409.902 233.769 415.545 244.182C423.008 257.95 424.727 275.589 423.54 287.946L423.477 288.611L423.462 289.278C423.18 302.316 419.31 322.294 409.182 338.74C399.519 354.43 384.543 366.598 360.156 367.685C347.571 368.246 338.919 365.506 332.833 361.548C326.691 357.553 321.822 351.442 318.329 343.087C311.1 325.793 310.728 300.916 316.488 276.262C316.775 275.033 316.929 273.803 316.959 272.588C317.07 272.268 317.173 271.942 317.267 271.612C319.656 263.252 325.646 250.039 335.246 239.27C344.642 228.73 356.354 221.667 370.96 221.667Z" fill="white"/>
</svg>
